<svg id="paper-clip-outline" xmlns="http://www.w3.org/2000/svg" width="10.5" height="11.46" viewBox="0 0 10.5 11.46">
  <path id="Path_1" data-name="Path 1" d="M19.021,7.635l4.357-4.357A1.5,1.5,0,0,1,24.5,2.805a1.46,1.46,0,0,1,1.47,1.47,1.5,1.5,0,0,1-.472,1.117L22.419,8.468a.229.229,0,0,1-.165.075q-.12,0-.352-.232t-.232-.353a.229.229,0,0,1,.075-.165l3.075-3.075a.639.639,0,0,0,.187-.442.487.487,0,0,0-.5-.5.644.644,0,0,0-.45.18L19.7,8.31A1.494,1.494,0,0,0,19.224,9.4a1.078,1.078,0,0,0,1.11,1.11,1.494,1.494,0,0,0,1.087-.473l5.82-5.827a1.854,1.854,0,0,0,.57-1.357,1.875,1.875,0,0,0-.547-1.357A1.8,1.8,0,0,0,25.921.93a1.891,1.891,0,0,0-1.357.577L20.019,6.06a.237.237,0,0,1-.173.075q-.12,0-.349-.229t-.229-.349a.23.23,0,0,1,.075-.165L23.881.848A2.822,2.822,0,0,1,25.928,0a2.732,2.732,0,0,1,2.017.833,2.769,2.769,0,0,1,.825,2.025,2.8,2.8,0,0,1-.847,2.032L22.1,10.71a2.413,2.413,0,0,1-1.762.75A2.025,2.025,0,0,1,18.271,9.4,2.38,2.38,0,0,1,19.021,7.635Z" transform="translate(-18.271)" fill="#002e8a"/>
</svg>
